<?xml version="1.0" standalone="no"?>
<!DOCTYPE svg PUBLIC "-//W3C//DTD SVG 20010904//EN"
 "http://www.w3.org/TR/2001/REC-SVG-20010904/DTD/svg10.dtd">
<svg version="1.0" xmlns="http://www.w3.org/2000/svg"
 width="512.000000pt" height="512.000000pt" viewBox="0 0 512.000000 512.000000"
 preserveAspectRatio="xMidYMid meet">
<metadata>
Created by potrace 1.11, written by Peter Selinger 2001-2013
</metadata>
<g transform="translate(0.000000,512.000000) scale(0.100000,-0.100000)"
fill="#000000" stroke="none">
<path d="M646 4877 c1 -45 5 -233 8 -418 l7 -337 -27 -19 c-37 -27 -36 -75 3
-109 21 -18 28 -33 29 -66 1 -24 5 -180 8 -348 8 -383 15 -721 21 -960 2 -102
7 -333 11 -513 l7 -328 -27 -28 c-23 -24 -27 -35 -22 -64 6 -40 24 -85 42
-107 9 -11 14 -92 19 -280 5 -242 7 -271 29 -333 17 -51 32 -76 61 -100 21
-18 52 -44 70 -59 17 -15 60 -38 96 -52 35 -13 90 -36 121 -49 85 -35 126 -29
374 53 l218 73 26 -32 26 -31 194 65 194 65 26 -23 c14 -12 30 -27 35 -33 6
-6 17 -15 26 -20 15 -8 14 -17 -12 -93 -28 -84 -33 -116 -44 -262 l-6 -77 69
-40 c74 -42 76 -42 182 -17 36 9 79 18 95 21 17 3 62 13 100 23 39 9 76 17 84
16 9 0 23 -39 42 -114 16 -62 32 -117 34 -121 4 -7 45 -11 130 -12 17 -1 48 2
70 6 22 4 54 9 70 12 17 2 77 13 135 24 58 10 152 26 210 35 126 20 147 23
180 30 14 3 81 15 150 26 145 25 255 67 246 96 -2 10 -8 55 -11 100 -7 80 -6
82 17 87 110 25 160 36 184 40 130 24 132 25 173 82 l39 54 -46 108 c-24 59
-58 126 -73 149 -16 23 -29 46 -29 51 0 5 24 14 53 21 133 30 274 74 274 84 1
7 7 38 14 70 10 51 10 60 -5 75 -9 9 -39 45 -66 79 -26 34 -72 82 -102 106
l-53 44 2 58 c2 32 5 60 7 63 3 2 60 23 128 47 l123 42 -3 69 c-3 76 -3 76
-100 139 -29 19 -78 44 -109 55 -76 27 -74 21 -78 157 -3 71 -2 72 25 78 15 3
55 31 88 61 59 53 61 55 50 87 -7 17 -17 43 -25 57 -7 14 -13 30 -13 37 0 16
-115 41 -175 37 l-50 -3 -45 85 c-35 67 -48 83 -62 78 -27 -8 -22 13 16 59 18
23 45 73 59 111 l27 70 -37 55 c-21 31 -39 58 -40 60 -5 9 -142 -33 -186 -57
l-48 -26 -63 63 -63 62 14 52 c8 29 16 97 17 153 l4 101 -53 42 c-30 22 -56
41 -59 41 -3 0 -60 -34 -127 -76 l-121 -76 -32 17 c-20 11 -32 25 -33 39 -1
56 -13 136 -27 181 -16 49 -16 74 -1 260 5 66 14 194 20 295 2 36 6 99 10 140
3 41 7 107 10 145 3 39 7 99 10 135 2 36 7 103 10 150 4 47 8 104 10 127 2 24
0 45 -4 47 -8 5 -254 17 -404 20 -54 1 -91 6 -95 13 -7 12 -105 17 -502 28
-113 3 -257 8 -320 10 -63 3 -207 7 -320 10 -113 3 -261 8 -330 10 -69 2 -217
6 -330 10 -113 3 -261 8 -330 10 l-126 5 2 -83z"/>
</g>
</svg>
