/* XPM */
static char *ved91_o2bmh[] = {
/* columns rows colors chars-per-pixel */
"64 64 153 2 ",
"   c None",
".  c #020101",
"X  c #0A0505",
"o  c #0C0C0D",
"O  c #1E0403",
"+  c #0F0F11",
"@  c #170F10",
"#  c #131314",
"$  c #161719",
"%  c #1B1B1C",
"&  c #370D0B",
"*  c #211112",
"=  c #231E1F",
"-  c #3D1311",
";  c #301B1C",
":  c #3B1C1D",
">  c #1E1F21",
",  c #1F2023",
"<  c #232326",
"1  c #282124",
"2  c #232428",
"3  c #2E2528",
"4  c #2A2B2D",
"5  c #2D2E32",
"6  c #2F3033",
"7  c #333234",
"8  c #383535",
"9  c #363639",
"0  c #37383B",
"q  c #3A3A3D",
"w  c #470804",
"e  c #4B0905",
"r  c #4E0D09",
"t  c #500D08",
"y  c #4F120F",
"u  c #51130F",
"i  c #4D1513",
"p  c #511614",
"a  c #531916",
"s  c #531C1A",
"d  c #721711",
"f  c #721A15",
"g  c #741D19",
"h  c #55211F",
"j  c #74211E",
"k  c #79221F",
"l  c #442325",
"z  c #422629",
"x  c #4D2729",
"c  c #4F282A",
"v  c #542323",
"b  c #592423",
"n  c #592927",
"m  c #532729",
"M  c #58272A",
"N  c #532B2D",
"B  c #5B282A",
"V  c #532E30",
"C  c #563537",
"Z  c #553A3C",
"A  c #5A3A3C",
"S  c #692524",
"D  c #60292A",
"F  c #6E2B2C",
"G  c #742423",
"H  c #7A2522",
"J  c #722C2C",
"K  c #7E2D2C",
"L  c #643533",
"P  c #673F3E",
"I  c #7D3834",
"U  c #793C3B",
"Y  c #3E3E41",
"T  c #3F4043",
"R  c #444345",
"E  c #464648",
"W  c #47484B",
"Q  c #4B4B4D",
"!  c #5B4346",
"~  c #574C4E",
"^  c #4E4E51",
"/  c #5D4E50",
"(  c #4F5053",
")  c #535355",
"_  c #575759",
"`  c #5A5A5D",
"'  c #654746",
"]  c #634C4E",
"[  c #6B4F4E",
"{  c #734F4E",
"}  c #634E50",
"|  c #625557",
" . c #6B5151",
".. c #6F5D5D",
"X. c #5E5E61",
"o. c #605F62",
"O. c #636264",
"+. c #666668",
"@. c #686769",
"#. c #6B6A6D",
"$. c #776565",
"%. c #7C6767",
"&. c #75696B",
"*. c #6E6E70",
"=. c #706F71",
"-. c #747375",
";. c #7E7475",
":. c #777779",
">. c #787779",
",. c #7B7A7C",
"<. c #9A251D",
"1. c #862522",
"2. c #8A2825",
"3. c #832D2C",
"4. c #8C2E2D",
"5. c #932622",
"6. c #9B2B25",
"7. c #942F2D",
"8. c #9C2F2D",
"9. c #95302E",
"0. c #9B302E",
"q. c #A22C27",
"w. c #A42F2B",
"e. c #B42D25",
"r. c #A3312F",
"t. c #AA322E",
"y. c #B4342F",
"u. c #BD312A",
"i. c #A63230",
"p. c #AD3330",
"a. c #B23430",
"s. c #BA3531",
"d. c #C13631",
"f. c #806969",
"g. c #827071",
"h. c #857A7B",
"j. c #7F7F81",
"k. c #817F81",
"l. c #838384",
"z. c #8E8587",
"x. c #878688",
"c. c #888788",
"v. c #8B8A8C",
"b. c #8F8E90",
"n. c #918E91",
"m. c #949395",
"M. c #989496",
"N. c #979698",
"B. c #989799",
"V. c #9C9A9C",
"C. c #9F9EA0",
"Z. c #A09FA1",
"A. c #A1A0A2",
/* pixels */
"                                                                                                                                ",
"                                                                                                                                ",
"                w.t.t.w.q.6.5.1.k H H G H g H g                                                                                 ",
"                r.p.y.y.s.a.i.3.D B B D B B B B B B B B B B B M B D B B M M M M m n                                             ",
"                r.p.a.a.a.a.i.3.B D B B B B B B B M M M M M m N m m m m m m m m x m x                                           ",
"                r.p.a.a.a.a.p.3.D D D B D B B M B B M M M M M M m m m m m m c m m c                                             ",
"                r.t.a.a.a.a.i.3.D B B D B B B B M M B M M M m m m m m m m m m c c m                                             ",
"                r.t.p.a.a.a.i.3.D D B B B B B M M M B V M m M m m m m m m m c m c m                                             ",
"                0.t.a.p.a.a.i.3.D B B B B B B M B B M m m m n m M m m m m m c m x x                                             ",
"                r.t.p.a.a.p.i.3.D B B B B B M M V M M M m n n m M m m m x m m x m c                                             ",
"                0.t.i.p.a.p.0.3.B B B B B B M M M M m M m m n m m m m x m m m c m c                                             ",
"                8.t.p.p.p.i.i.3.D B B B B M B M M M M M m M m m m m m m x m x m c c                                             ",
"                p.t.t.t.p.p.r.3.B B B B M M M M M M m M m m m m m m m x m v m x x x                                             ",
"                a.u.d.u.e.w.i.K B B B M M M M M M M m m m m m m m m m m m x x x m x                                             ",
"                b S 2.r.K <.0.K B B B N M M M v h m M m m m m m m m m x x x m m x x                                             ",
"                4.J x : : 6.i.K B B M B B M v s i s M m v s h m x m x m x m x x x x                                             ",
"                7.t.t.t.i.t.i.K h s h B B M s s s i v v v v i m N Z C m m c c x c c                                             ",
"                7.i.t.i.i.t.0.K a s a D b h s s s i i a s v h V z.#.+.N c c c  .Z c                                             ",
"                9.t.r.i.t.t.9.K a a a a y s s s s s i m v v [ N.V.#.#.| c A z.>.+./                                             ",
"                7.9.t.t.t.i.0.K a a a a y r p p a s  .#.#...B.B.B.-.@.#...M.V.+.O.+.                                            ",
"                7.0.i.i.t.i.0.H a a a a a r t s s $.v.-.*.#.l.N.B.,.#.#.#.1 m.+.+.+.                                            ",
"                6.0.i.i.t.p.0.H a a p a a p e h ;.x.c.j.#.*.#.v.c.-.#.#.#.+.#.+.+.O.      #.O.                                  ",
"                7.r.r.r.i.r.0.H s a p p y r b h.l.x.x.l.=.*.#.#.#.#.+.#.@.+.+.+.+.+.O.< :.O.O.                                  ",
"                  7.0.i.r.r.9.k h s p p e e ;.j.l.l.j.,.:.#.#.#.#.+.#.+.@.+.+.+.O.O.+.+.+.O.O.                                  ",
"                  0.r.r.r.i.7.k b b s r e L l.*.*.-.>.>.,.#.#.#.#.#.#.+.+.#.O.o.X.X.` O.O.O.O.                                  ",
"                  0.0.r.0.i.9.k s b s p { v.#.*.*.*.#.j.*.#.#.#.) 8 +.#.,.l.X.X.) ) X.X.O.O.O.                                  ",
"                  9.0.r.0.r.0.g t s p f.,.| ` +.*.#.*.#.#.#.#.Q . % >.v.v.b.O.o.< 6 o.` ` O.O.X.    o.X.                        ",
"                  9.0.r.i.t.0.g t r g.*.` _ ) Q O.*.*.#.&.#._ X . o v.v.v.v.-.X.q > #.` ) ` O.O.` O.o.o.                        ",
"                  9.0.r.r.0.9.g r b O.` _ ) Q R q ) #.*.#.#.$ . . . c.v.b.b.l.X.` X =.` X.` O.o.O.o.o.o.                        ",
"                  9.8.0.0.r.9.g e y ~ _ ) Q R 0 8 #.*.#.#.Q . . . . ,.v.b.C.-.X.` > ^ ^ ` ` X.O.o.o.o.X.                        ",
"                  7.0.r.0.0.7.d e e i Q Q R q E v.v.#.#.#.< . X . . #.N.C.V.o.X._ o . , O.` ` ` o.o.`                           ",
"                  7.0.0.0.r.9.d r e e i ` X.` >.l.,.#.#.#.X . . . X b.Z.C.l.X.X.` + . 6 >.` ` ` ` _ ` _                         ",
"                  7.0.0.0.0.9.g e e s h.l.#.*.*.#.#.#.#.` . . . . 8 C.C.C.#.X.X.| 7 . o j.` ` ) ` ` _ ` _                       ",
"                  7.9.0.0.0.4.g e P n.N.*.*.#.#.#.#.#.#.Q . . . . ,.C.V.c.X.X.X.` ( . . ) 2 + . o._ _ _ _ ` X.                  ",
"                  7.9.0.0.0.9.g %.N.v.E , 7 O.*.#.#.#.#.R . X X = v.@.o.X.X.X.W 7 % . . . . . . ` ` ` _ _ 9 ( `                 ",
"                  4.9.0.0.0.9.I m.*.5 2 , # $ 7 Q #.#.&.R . o Q v.x.| o.X.o.` % . . o X . . . . X.` ` _ _ q 6                   ",
"                  4.9.0.0.9.7.U W 2 2 2 2 $ o . . +.#.#.` Q ;.v.v.c.o.X.X.X.X.4 . . . X . . . o -.O.` _ _ )                     ",
"                  4.7.0.9.0.4.g - 1 2 2 , X . o 6 ,.#.+.+.+.-.v.c.x.+.X.X.` ` Q . X . . . X 7 ` ` ` _ ( q 9                     ",
"                  4.7.9.9.0.4.f e w & O o o % 2 X.j.#.+.O.O.#.x.x.x.#.X.o.` o.` = o < 2 . 4 c.` ` _ _ 4 2 2                     ",
"                  4.9.9.9.9.4.g e w w w ; 2 5 _ -.#.#.+.O.+.+.k.j.j.,.o.X.X.X.` ` ` ` _ . % v.#._ ` ) # 2 2 2 2                 ",
"                  4.7.7.7.7.4.j w w w w ; ( #.#.#.#.#.#.O.O.O.;.j.,.,.+.` X.X.` ` ` ` ` = o v.,._ _ Y o 2 2 2 2 2               ",
"                  4.7.7.9.7.4.g e w w i o.>.#.#.+.#.+.+.O.O.O.@.,.:.:.-.X.Q 7 4 ` ` ` ` T . x.:.` _ 2 o 2 2 2 2 2               ",
"                a.w.7.7.7.7.9.G w r ' ,.,.:.#.#.#.+.#.+.+.O.o.O.*.-.+.q o . . . # Q ` ` _ W 4 -._ _ o + 2 2 2 2 2               ",
"                t.d.t.9.7.7.4.J s &.,.,.j.&.E R ) ^ R o.@.O.O.o.Q 6 % < + . . . . o 8 ` ` _ % :.` _ X # 2 2                     ",
"                  3.s.d.s.7.4.J ! >.>.*.Y 2 $ . o > 2 ( +.O.O.9 % 2 2 2 2 + . . . . + > Q ` 0 5 +._ 2 % 2 2                     ",
"                  B c K 7.g 4.F V #.R 2 2 % # > 2 2 2 Y @.+.+.O.5 2 2 2 2 2 o . . . . . ` ` ) X -._ R 2 2 2 2                   ",
"                  3.J z 3 S 4.F m x z z l x 3 2 2 2 2 9 *.+.+.+.` 2 2 2 2 2 , o + . . < l.X._ W X._ ) 4 2 2 2 2                 ",
"                  3.4.4.4.3.4.F x x x x x x z 2 2 $ < -.+.+.+.O.+.) 2 2 2 2 2 2 $ . . $ l.#.` ) _ _ q 2 2 2 2 2 2               ",
"                  3.4.4.7.4.4.F m x x x x x l @ . = v.@.+.+.+.+.O.+.( 2 2 2 2 , o . . o l.=.R q 7 2 2 2 2 2 2 2 2               ",
"                  3.4.4.4.7.4.F x x x x x z * 8 >.C.:.+.+.O.O.+.+.O.+.` 6 2 2 , . . . . , # % , 2 2 2 2 2 2 2 2 2               ",
"                  3.4.4.7.4.3.F x x x l x } n.C.C.x.+.+.+.+._ 9 X.O.O.+.O.E 4 # . . o , 2 2 2 2 2 2 2 2 2 2                     ",
"                  3.4.4.4.4.4.F x x x x V n.n.=.( R ` +.O.W 2 # % ` O.O.O.O.O.T < $ % 2 , 2 2 2 2 2 2 2 2                       ",
"                    4.4.4.4.4.F x x x x ! ` E E R E E T 2 # . . + #.O.O.O.O.o.o.O.o.` 7 2 2 2 2 2 2 2 2 2 2                     ",
"                      4.4.4.3.F x x l c z R R E         o . . . E #.O.O.O.O.O.O.o.o.o.X.q 2 2 2 2 2 2 2 2 2                     ",
"                        4.4.4.F c c                     @ % o . ,.O.O.O.o.9 _ o.o.o.o.o.o.T 2 2 2 2 2 , 2 2                     ",
"                                                      2 2 2 > + b.O.O.O.E . . Y O.o.o.Q q W W 2 2 2 2 2 2 2                     ",
"                                                      2 2 2 2 E v.O.o.O.> . . O.o.o.o.$ . 7 o.^ 4 2 2 2                         ",
"                                                      2 2 2 2 X.-.O.O.W > . . ,.o.X.o.6 2 q O.X.X.                              ",
"                                                      2 2 2 2 2 , 7 Q 2 2 , $ ,.O.X.X.4 2 2 #.o.`                               ",
"                                                        2 2 2 2     2 2 2 2 2 *.#.o._ 2 2 2 ( o.`                               ",
"                                                                    2 2 2 2 2 X.-.O.Q 2 2 2                                     ",
"                                                                    2 2 2 2 , 5                                                 ",
"                                                                                                                                ",
"                                                                                                                                "
};
